<?xml version="1.0" encoding="utf-8"?>
<!-- Generator: Adobe Illustrator 16.0.0, SVG Export Plug-In . SVG Version: 6.00 Build 0)  -->
<!DOCTYPE svg PUBLIC "-//W3C//DTD SVG 1.1//EN" "http://www.w3.org/Graphics/SVG/1.1/DTD/svg11.dtd">
<svg version="1.1" id="Layer_1" xmlns="http://www.w3.org/2000/svg" xmlns:xlink="http://www.w3.org/1999/xlink" x="0px" y="0px"
	 width="100.982px" height="62.941px" viewBox="0 0 100.982 62.941" enable-background="new 0 0 100.982 62.941"
	 xml:space="preserve">
<g id="avenir_next_cond_90_20">
	<g>
		<path fill="#333333" d="M8.117,56.411v-0.473l3.534-5.261c0.53-0.786,0.954-1.5,1.271-2.141c0.317-0.642,0.477-1.288,0.477-1.941
			c0-0.387-0.048-0.756-0.146-1.105c-0.098-0.351-0.239-0.659-0.427-0.927c-0.188-0.266-0.427-0.478-0.718-0.635
			s-0.631-0.235-1.02-0.235c-1.308,0-2.143,0.73-2.504,2.191l-0.408-0.09c0.194-0.773,0.524-1.371,0.99-1.794
			s1.106-0.634,1.922-0.634c0.479,0,0.894,0.088,1.242,0.263c0.351,0.176,0.634,0.408,0.854,0.698
			c0.22,0.291,0.381,0.623,0.484,0.998c0.104,0.375,0.155,0.762,0.155,1.16c0,0.399-0.042,0.774-0.126,1.125
			c-0.084,0.352-0.207,0.704-0.369,1.062c-0.162,0.356-0.362,0.731-0.602,1.124c-0.239,0.394-0.515,0.826-0.825,1.298l-3.32,4.952
			h5.185v0.362L8.117,56.411L8.117,56.411z"/>
		<path fill="#333333" d="M21.862,56.629c-0.673,0-1.22-0.203-1.641-0.607c-0.422-0.403-0.747-0.924-0.98-1.558
			s-0.392-1.347-0.476-2.138s-0.126-1.567-0.126-2.328c0-0.762,0.042-1.536,0.126-2.327s0.242-1.504,0.476-2.138
			c0.233-0.636,0.56-1.153,0.98-1.56c0.42-0.404,0.968-0.605,1.641-0.605s1.22,0.201,1.641,0.605c0.42,0.405,0.748,0.924,0.98,1.56
			c0.232,0.634,0.391,1.347,0.476,2.138c0.084,0.791,0.126,1.565,0.126,2.327c0,0.761-0.042,1.537-0.126,2.328
			s-0.243,1.504-0.476,2.138c-0.233,0.634-0.561,1.153-0.98,1.558C23.082,56.426,22.535,56.629,21.862,56.629z M21.862,43.73
			c-0.427,0-0.793,0.111-1.097,0.335c-0.305,0.225-0.561,0.515-0.768,0.869c-0.207,0.356-0.372,0.762-0.495,1.214
			c-0.123,0.453-0.217,0.912-0.28,1.377c-0.065,0.466-0.107,0.915-0.126,1.351c-0.02,0.435-0.029,0.81-0.029,1.123
			c0,0.326,0.01,0.704,0.029,1.133s0.062,0.875,0.126,1.34c0.063,0.466,0.157,0.924,0.28,1.377s0.288,0.857,0.495,1.214
			c0.207,0.357,0.463,0.646,0.768,0.869c0.304,0.224,0.669,0.336,1.097,0.336s0.792-0.112,1.097-0.336
			c0.305-0.223,0.561-0.513,0.768-0.869c0.207-0.355,0.372-0.761,0.495-1.214s0.216-0.911,0.28-1.377
			c0.065-0.465,0.107-0.911,0.126-1.34c0.02-0.429,0.029-0.807,0.029-1.133c0-0.313-0.009-0.688-0.029-1.123
			c-0.02-0.436-0.062-0.885-0.126-1.351c-0.063-0.465-0.159-0.924-0.28-1.377c-0.123-0.452-0.288-0.856-0.495-1.214
			c-0.207-0.354-0.463-0.646-0.768-0.869C22.655,43.842,22.289,43.73,21.862,43.73z"/>
		<path fill="#333333" d="M32.811,56.411V44.057l-2.698,2.064l-0.272-0.309l2.971-2.229h0.427V56.41L32.811,56.411L32.811,56.411z"
			/>
		<path fill="#333333" d="M45.896,47.19c0,0.423-0.062,0.903-0.186,1.44s-0.339,1.15-0.649,1.839l-2.698,5.941h-0.505l2.97-6.377
			l-0.039-0.019c-0.155,0.241-0.424,0.453-0.806,0.634c-0.382,0.183-0.812,0.271-1.291,0.271c-0.466,0-0.883-0.097-1.252-0.29
			c-0.369-0.192-0.679-0.462-0.933-0.806c-0.253-0.345-0.446-0.745-0.583-1.205c-0.136-0.458-0.203-0.96-0.203-1.503
			c0-0.544,0.067-1.046,0.203-1.505c0.137-0.459,0.337-0.854,0.603-1.187c0.265-0.332,0.588-0.592,0.971-0.779
			c0.381-0.187,0.825-0.279,1.33-0.279c0.492,0,0.929,0.094,1.312,0.279c0.381,0.188,0.701,0.447,0.961,0.779
			c0.259,0.332,0.456,0.733,0.592,1.205C45.828,46.104,45.896,46.623,45.896,47.19z M45.469,47.19c0-0.51-0.059-0.977-0.175-1.401
			c-0.116-0.426-0.289-0.792-0.515-1.103c-0.227-0.31-0.505-0.553-0.835-0.729s-0.708-0.265-1.136-0.265
			c-0.414,0-0.786,0.085-1.116,0.256c-0.33,0.17-0.608,0.405-0.834,0.71c-0.228,0.304-0.401,0.665-0.524,1.084
			s-0.185,0.877-0.185,1.374c0,0.511,0.059,0.979,0.175,1.402c0.117,0.425,0.285,0.792,0.505,1.103c0.22,0.31,0.498,0.55,0.835,0.72
			c0.336,0.169,0.718,0.254,1.146,0.254c0.389,0,0.744-0.088,1.067-0.264s0.605-0.416,0.846-0.721
			c0.238-0.303,0.424-0.66,0.553-1.073C45.404,48.126,45.469,47.677,45.469,47.19z"/>
		<path fill="#333333" d="M49.876,51.991v-0.362h2.523v0.362H49.876z"/>
		<path fill="#333333" d="M56.185,56.411v-0.473l3.532-5.261c0.53-0.786,0.954-1.5,1.271-2.141c0.317-0.642,0.476-1.288,0.476-1.941
			c0-0.387-0.049-0.756-0.146-1.105c-0.097-0.351-0.239-0.659-0.427-0.927c-0.188-0.266-0.429-0.478-0.72-0.635
			s-0.631-0.235-1.02-0.235c-1.307,0-2.142,0.73-2.504,2.191l-0.408-0.09c0.194-0.773,0.524-1.371,0.99-1.794
			s1.105-0.634,1.922-0.634c0.479,0,0.894,0.088,1.243,0.263c0.349,0.176,0.634,0.408,0.854,0.698
			c0.222,0.291,0.382,0.623,0.485,0.998c0.103,0.375,0.155,0.762,0.155,1.16c0,0.399-0.042,0.774-0.126,1.125
			c-0.084,0.352-0.207,0.704-0.369,1.062c-0.161,0.356-0.362,0.731-0.603,1.124c-0.238,0.394-0.515,0.826-0.825,1.298l-3.318,4.952
			h5.184v0.362L56.185,56.411L56.185,56.411z"/>
		<path fill="#333333" d="M69.929,56.629c-0.675,0-1.222-0.203-1.642-0.607c-0.421-0.403-0.748-0.924-0.979-1.558
			c-0.233-0.634-0.393-1.347-0.477-2.138c-0.085-0.791-0.126-1.567-0.126-2.328c0-0.762,0.041-1.536,0.126-2.327
			c0.084-0.791,0.242-1.504,0.477-2.138c0.231-0.636,0.56-1.153,0.979-1.56c0.42-0.404,0.967-0.605,1.642-0.605
			c0.673,0,1.22,0.201,1.64,0.605c0.421,0.405,0.748,0.924,0.979,1.56c0.233,0.634,0.393,1.347,0.477,2.138s0.127,1.565,0.127,2.327
			c0,0.761-0.043,1.537-0.127,2.328s-0.242,1.504-0.477,2.138c-0.231,0.634-0.56,1.153-0.979,1.558S70.602,56.629,69.929,56.629z
			 M69.929,43.73c-0.429,0-0.793,0.111-1.099,0.335c-0.304,0.225-0.56,0.515-0.767,0.869c-0.207,0.356-0.372,0.762-0.495,1.214
			c-0.123,0.453-0.217,0.912-0.281,1.377c-0.064,0.466-0.105,0.915-0.126,1.351c-0.02,0.435-0.029,0.81-0.029,1.123
			c0,0.326,0.011,0.704,0.029,1.133c0.02,0.429,0.062,0.875,0.126,1.34c0.064,0.466,0.158,0.924,0.281,1.377
			s0.288,0.857,0.495,1.214c0.207,0.357,0.463,0.646,0.767,0.869c0.306,0.224,0.67,0.336,1.099,0.336
			c0.427,0,0.792-0.112,1.097-0.336c0.304-0.223,0.56-0.513,0.767-0.869c0.207-0.355,0.372-0.761,0.495-1.214
			s0.217-0.911,0.281-1.377c0.063-0.465,0.106-0.911,0.126-1.34s0.029-0.807,0.029-1.133c0-0.313-0.011-0.688-0.029-1.123
			c-0.02-0.436-0.062-0.885-0.126-1.351c-0.064-0.465-0.158-0.924-0.281-1.377c-0.123-0.452-0.288-0.856-0.495-1.214
			c-0.207-0.354-0.463-0.646-0.767-0.869C70.721,43.842,70.356,43.73,69.929,43.73z"/>
		<path fill="#333333" d="M77.151,56.411v-0.473l3.533-5.261c0.529-0.786,0.954-1.5,1.271-2.141
			c0.317-0.642,0.477-1.288,0.477-1.941c0-0.387-0.05-0.756-0.146-1.105c-0.097-0.351-0.239-0.659-0.427-0.927
			c-0.188-0.266-0.428-0.478-0.719-0.635s-0.632-0.235-1.021-0.235c-1.307,0-2.142,0.73-2.504,2.191l-0.408-0.09
			c0.194-0.773,0.524-1.371,0.99-1.794s1.106-0.634,1.922-0.634c0.479,0,0.895,0.088,1.243,0.263
			c0.349,0.176,0.634,0.408,0.854,0.698c0.222,0.291,0.383,0.623,0.485,0.998c0.104,0.375,0.155,0.762,0.155,1.16
			c0,0.399-0.042,0.774-0.126,1.125c-0.084,0.352-0.207,0.704-0.369,1.062c-0.161,0.356-0.362,0.731-0.603,1.124
			c-0.238,0.394-0.515,0.826-0.824,1.298l-3.319,4.952h5.184v0.362L77.151,56.411L77.151,56.411z"/>
		<path fill="#333333" d="M90.896,56.629c-0.674,0-1.222-0.203-1.642-0.607c-0.421-0.403-0.748-0.924-0.979-1.558
			c-0.233-0.634-0.393-1.347-0.477-2.138c-0.085-0.791-0.126-1.567-0.126-2.328c0-0.762,0.041-1.536,0.126-2.327
			c0.084-0.791,0.242-1.504,0.477-2.138c0.231-0.636,0.56-1.153,0.979-1.56c0.42-0.404,0.968-0.605,1.642-0.605
			c0.673,0,1.22,0.201,1.64,0.605c0.421,0.405,0.748,0.924,0.98,1.56c0.232,0.634,0.392,1.347,0.476,2.138s0.127,1.565,0.127,2.327
			c0,0.761-0.043,1.537-0.127,2.328s-0.242,1.504-0.476,2.138c-0.232,0.634-0.561,1.153-0.98,1.558S91.569,56.629,90.896,56.629z
			 M90.896,43.73c-0.429,0-0.793,0.111-1.099,0.335c-0.304,0.225-0.56,0.515-0.767,0.869c-0.207,0.356-0.372,0.762-0.495,1.214
			c-0.123,0.453-0.217,0.912-0.281,1.377c-0.064,0.466-0.105,0.915-0.126,1.351c-0.02,0.435-0.028,0.81-0.028,1.123
			c0,0.326,0.01,0.704,0.028,1.133c0.02,0.429,0.062,0.875,0.126,1.34c0.064,0.466,0.158,0.924,0.281,1.377s0.288,0.857,0.495,1.214
			c0.207,0.357,0.463,0.646,0.767,0.869c0.306,0.224,0.67,0.336,1.099,0.336c0.427,0,0.792-0.112,1.097-0.336
			c0.304-0.223,0.561-0.513,0.767-0.869c0.207-0.355,0.372-0.761,0.495-1.214s0.218-0.911,0.281-1.377
			c0.064-0.465,0.107-0.911,0.126-1.34c0.021-0.429,0.029-0.807,0.029-1.133c0-0.313-0.01-0.688-0.029-1.123
			c-0.019-0.436-0.062-0.885-0.126-1.351c-0.063-0.465-0.158-0.924-0.281-1.377c-0.123-0.452-0.288-0.856-0.495-1.214
			c-0.206-0.354-0.463-0.646-0.767-0.869C91.688,43.842,91.323,43.73,90.896,43.73z"/>
	</g>
</g>
<g id="ucla_ece">
	<g>
		<path fill="#00588A" d="M36.429,4.176c0.01-0.062,0.049-0.082,0.113-0.058L64.572,14.32c0.068,0.035,0.102,0.08,0.102,0.137v6.296
			c0,0.066-0.031,0.088-0.102,0.063l-20.934-7.62v10.833l20.934,7.621c0.068,0.035,0.102,0.08,0.102,0.137v6.297
			c0,0.064-0.031,0.087-0.102,0.062L36.544,27.942c-0.078-0.026-0.113-0.073-0.113-0.142L36.429,4.176L36.429,4.176z"/>
		<path fill="#00588A" d="M66.333,14.456c0.014-0.07,0.051-0.118,0.117-0.144L94.48,4.112c0.064-0.013,0.1,0.01,0.1,0.063v6.297
			c0,0.066-0.033,0.112-0.1,0.136l-20.938,7.619v2.193L94.48,12.8c0.064-0.013,0.1,0.009,0.1,0.064v6.296
			c0,0.066-0.033,0.111-0.1,0.136l-20.938,7.62v2.144l20.938-7.62c0.064-0.014,0.1,0.009,0.1,0.064v6.295
			c0,0.067-0.033,0.112-0.1,0.138L66.451,38.14c-0.078,0.028-0.117,0.008-0.117-0.058L66.333,14.456L66.333,14.456z"/>
		<path fill="#00588A" d="M6.275,14.458c0.012-0.07,0.051-0.118,0.117-0.143L34.421,4.113c0.066-0.012,0.1,0.01,0.1,0.063v6.297
			c0,0.066-0.031,0.112-0.1,0.135l-20.935,7.62v2.193l20.935-7.62c0.066-0.013,0.1,0.008,0.1,0.064v6.297
			c0,0.065-0.031,0.11-0.1,0.135l-20.935,7.62v2.145l20.935-7.621c0.066-0.013,0.1,0.01,0.1,0.064v6.296
			c0,0.067-0.031,0.112-0.1,0.136L6.393,38.14c-0.079,0.028-0.117,0.01-0.117-0.057L6.275,14.458L6.275,14.458z"/>
	</g>
</g>
</svg>
