<?xml version="1.0" encoding="utf-8"?>
<!-- Generator: Adobe Illustrator 16.0.0, SVG Export Plug-In . SVG Version: 6.00 Build 0)  -->
<!DOCTYPE svg PUBLIC "-//W3C//DTD SVG 1.1//EN" "http://www.w3.org/Graphics/SVG/1.1/DTD/svg11.dtd">
<svg version="1.1" xmlns="http://www.w3.org/2000/svg" xmlns:xlink="http://www.w3.org/1999/xlink" x="0px" y="0px"
	 width="489.959px" height="331.763px" viewBox="0 0 489.959 331.763" enable-background="new 0 0 489.959 331.763"
	 xml:space="preserve">
<g id="Layer_2">
	<g>
		<path fill="#FFFFFF" d="M21.479,295.196v-2.472l18.517-27.565c2.778-4.118,4.999-7.859,6.662-11.217
			c1.661-3.356,2.492-6.748,2.492-10.173c0-2.026-0.253-3.96-0.762-5.796c-0.509-1.838-1.256-3.455-2.239-4.854
			c-0.981-1.391-2.238-2.501-3.763-3.325c-1.525-0.823-3.305-1.233-5.34-1.233c-6.852,0-11.227,3.828-13.123,11.483l-2.136-0.472
			c1.016-4.052,2.746-7.184,5.189-9.398c2.44-2.217,5.797-3.322,10.07-3.322c2.507,0,4.68,0.461,6.509,1.377
			c1.832,0.922,3.324,2.139,4.478,3.658c1.151,1.525,1.998,3.266,2.542,5.229c0.543,1.966,0.814,3.991,0.814,6.085
			c0,2.092-0.223,4.058-0.663,5.895s-1.085,3.689-1.932,5.562c-0.849,1.868-1.898,3.833-3.155,5.892
			c-1.254,2.062-2.694,4.327-4.321,6.799l-17.396,25.95h27.161v1.897H21.479z"/>
		<path fill="#FFFFFF" d="M93.502,296.338c-3.525,0-6.393-1.065-8.597-3.183c-2.203-2.119-3.915-4.841-5.134-8.162
			c-1.224-3.321-2.053-7.056-2.495-11.201c-0.439-4.146-0.66-8.213-0.66-12.199s0.221-8.049,0.66-12.193
			c0.442-4.146,1.271-7.881,2.495-11.201c1.22-3.326,2.932-6.043,5.134-8.168c2.204-2.119,5.071-3.178,8.597-3.178
			c3.526,0,6.392,1.059,8.597,3.178c2.202,2.125,3.917,4.842,5.137,8.168c1.221,3.32,2.05,7.056,2.492,11.201
			c0.441,4.145,0.66,8.207,0.66,12.193s-0.219,8.054-0.66,12.199c-0.442,4.146-1.271,7.88-2.492,11.201
			c-1.22,3.321-2.935,6.043-5.137,8.162C99.894,295.272,97.028,296.338,93.502,296.338z M93.502,228.751
			c-2.239,0-4.155,0.584-5.747,1.756c-1.594,1.172-2.935,2.691-4.019,4.554c-1.085,1.867-1.95,3.991-2.595,6.36
			c-0.644,2.374-1.135,4.78-1.473,7.215c-0.341,2.437-0.561,4.795-0.663,7.072c-0.101,2.277-0.151,4.242-0.151,5.885
			c0,1.709,0.05,3.689,0.151,5.936c0.102,2.247,0.322,4.585,0.663,7.021c0.338,2.441,0.829,4.841,1.473,7.216
			c0.645,2.374,1.51,4.491,2.595,6.36c1.084,1.868,2.425,3.388,4.019,4.554c1.591,1.172,3.508,1.76,5.747,1.76
			c2.239,0,4.153-0.588,5.75-1.76c1.591-1.166,2.932-2.686,4.017-4.554c1.085-1.869,1.949-3.986,2.594-6.36
			c0.643-2.375,1.134-4.774,1.474-7.216c0.34-2.436,0.56-4.773,0.663-7.021c0.103-2.246,0.15-4.227,0.15-5.936
			c0-1.643-0.048-3.607-0.15-5.885c-0.103-2.277-0.322-4.636-0.663-7.072c-0.34-2.435-0.832-4.841-1.474-7.215
			c-0.645-2.369-1.509-4.493-2.594-6.36c-1.085-1.862-2.425-3.382-4.017-4.554C97.655,229.335,95.741,228.751,93.502,228.751z"/>
		<path fill="#FFFFFF" d="M150.873,295.196V230.46l-14.138,10.817l-1.425-1.61l15.563-11.678h2.239v67.207H150.873z"/>
		<path fill="#FFFFFF" d="M219.436,246.882c0,2.215-0.322,4.732-0.967,7.547s-1.778,6.027-3.408,9.636l-14.138,31.132h-2.646
			l15.564-33.414l-0.203-0.093c-0.814,1.265-2.223,2.375-4.221,3.321c-2.001,0.952-4.257,1.423-6.765,1.423
			c-2.442,0-4.629-0.507-6.563-1.52c-1.932-1.008-3.56-2.421-4.881-4.221c-1.323-1.802-2.341-3.905-3.053-6.315
			c-0.711-2.4-1.067-5.029-1.067-7.875c0-2.85,0.356-5.476,1.067-7.881c0.711-2.404,1.763-4.477,3.155-6.217
			c1.389-1.74,3.083-3.102,5.086-4.084c1.998-0.977,4.321-1.469,6.966-1.469c2.577,0,4.866,0.492,6.867,1.469
			c1.998,0.982,3.677,2.344,5.036,4.084c1.356,1.74,2.389,3.842,3.104,6.314C219.08,241.186,219.436,243.908,219.436,246.882z
			 M217.197,246.882c0-2.672-0.305-5.118-0.914-7.349c-0.612-2.226-1.512-4.15-2.697-5.772c-1.187-1.622-2.645-2.896-4.375-3.816
			c-1.729-0.922-3.712-1.383-5.951-1.383c-2.169,0-4.119,0.445-5.849,1.336s-3.188,2.129-4.372,3.72
			c-1.19,1.592-2.104,3.485-2.748,5.68c-0.645,2.196-0.968,4.596-0.968,7.2c0,2.678,0.308,5.127,0.916,7.354
			c0.611,2.226,1.492,4.148,2.646,5.771c1.151,1.623,2.609,2.881,4.375,3.772c1.76,0.885,3.764,1.33,6,1.33
			c2.037,0,3.899-0.461,5.596-1.383c1.693-0.92,3.17-2.18,4.426-3.771c1.253-1.586,2.22-3.465,2.899-5.629
			C216.857,251.783,217.197,249.428,217.197,246.882z"/>
		<path fill="#FFFFFF" d="M240.29,272.036v-1.898h13.223v1.898H240.29z"/>
		<path fill="#FFFFFF" d="M273.352,295.196v-2.472l18.514-27.565c2.779-4.118,4.999-7.859,6.662-11.217
			c1.663-3.356,2.492-6.748,2.492-10.173c0-2.026-0.256-3.96-0.762-5.796c-0.507-1.838-1.254-3.455-2.236-4.854
			c-0.988-1.391-2.242-2.501-3.767-3.325c-1.524-0.823-3.305-1.233-5.342-1.233c-6.847,0-11.222,3.828-13.12,11.483l-2.14-0.472
			c1.019-4.052,2.748-7.184,5.189-9.398c2.44-2.217,5.797-3.322,10.07-3.322c2.512,0,4.682,0.461,6.514,1.377
			c1.827,0.922,3.321,2.139,4.473,3.658c1.156,1.525,2.001,3.266,2.543,5.229c0.543,1.966,0.813,3.991,0.813,6.085
			c0,2.092-0.22,4.058-0.66,5.895c-0.439,1.837-1.085,3.689-1.934,5.562c-0.845,1.868-1.899,3.833-3.152,5.892
			c-1.254,2.062-2.696,4.327-4.324,6.799l-17.393,25.95h27.161v1.897H273.352z"/>
		<path fill="#FFFFFF" d="M345.369,296.338c-3.53,0-6.396-1.065-8.597-3.183c-2.205-2.119-3.92-4.841-5.138-8.162
			c-1.223-3.321-2.052-7.056-2.491-11.201c-0.446-4.146-0.66-8.213-0.66-12.199s0.214-8.049,0.66-12.193
			c0.439-4.146,1.269-7.881,2.491-11.201c1.218-3.326,2.933-6.043,5.138-8.168c2.2-2.119,5.066-3.178,8.597-3.178
			c3.525,0,6.392,1.059,8.592,3.178c2.205,2.125,3.92,4.842,5.138,8.168c1.223,3.32,2.052,7.056,2.492,11.201
			c0.439,4.145,0.665,8.207,0.665,12.193s-0.226,8.054-0.665,12.199c-0.44,4.146-1.27,7.88-2.492,11.201
			c-1.218,3.321-2.933,6.043-5.138,8.162C351.761,295.272,348.895,296.338,345.369,296.338z M345.369,228.751
			c-2.241,0-4.155,0.584-5.751,1.756c-1.592,1.172-2.933,2.691-4.018,4.554c-1.084,1.867-1.949,3.991-2.594,6.36
			c-0.646,2.374-1.137,4.78-1.475,7.215c-0.343,2.437-0.557,4.795-0.66,7.072c-0.102,2.277-0.152,4.242-0.152,5.885
			c0,1.709,0.051,3.689,0.152,5.936c0.104,2.247,0.317,4.585,0.66,7.021c0.338,2.441,0.829,4.841,1.475,7.216
			c0.645,2.374,1.51,4.491,2.594,6.36c1.085,1.868,2.426,3.388,4.018,4.554c1.596,1.172,3.51,1.76,5.751,1.76
			c2.236,0,4.15-0.588,5.747-1.76c1.592-1.166,2.932-2.686,4.017-4.554c1.085-1.869,1.949-3.986,2.595-6.36
			c0.645-2.375,1.135-4.774,1.473-7.216c0.338-2.436,0.563-4.773,0.66-7.021c0.104-2.246,0.154-4.227,0.154-5.936
			c0-1.643-0.051-3.607-0.154-5.885c-0.097-2.277-0.322-4.636-0.66-7.072c-0.338-2.435-0.828-4.841-1.473-7.215
			c-0.646-2.369-1.51-4.493-2.595-6.36c-1.085-1.862-2.425-3.382-4.017-4.554C349.52,229.335,347.605,228.751,345.369,228.751z"/>
		<path fill="#FFFFFF" d="M383.21,295.196v-2.472l18.515-27.565c2.777-4.118,4.999-7.859,6.662-11.217
			c1.663-3.356,2.49-6.748,2.49-10.173c0-2.026-0.255-3.96-0.761-5.796c-0.507-1.838-1.255-3.455-2.236-4.854
			c-0.987-1.391-2.242-2.501-3.767-3.325c-1.524-0.823-3.306-1.233-5.342-1.233c-6.847,0-11.222,3.828-13.12,11.483l-2.139-0.472
			c1.018-4.052,2.747-7.184,5.188-9.398c2.44-2.217,5.797-3.322,10.07-3.322c2.512,0,4.682,0.461,6.514,1.377
			c1.827,0.922,3.321,2.139,4.473,3.658c1.156,1.525,2.001,3.266,2.543,5.229c0.542,1.966,0.813,3.991,0.813,6.085
			c0,2.092-0.22,4.058-0.66,5.895s-1.086,3.689-1.935,5.562c-0.845,1.868-1.898,3.833-3.151,5.892
			c-1.254,2.062-2.697,4.327-4.323,6.799l-17.394,25.95h27.161v1.897H383.21z"/>
		<path fill="#FFFFFF" d="M455.233,296.338c-3.531,0-6.396-1.065-8.598-3.183c-2.205-2.119-3.919-4.841-5.137-8.162
			c-1.223-3.321-2.053-7.056-2.492-11.201c-0.445-4.146-0.66-8.213-0.66-12.199s0.215-8.049,0.66-12.193
			c0.439-4.146,1.27-7.881,2.492-11.201c1.218-3.326,2.932-6.043,5.137-8.168c2.201-2.119,5.066-3.178,8.598-3.178
			c3.525,0,6.391,1.059,8.59,3.178c2.207,2.125,3.921,4.842,5.139,8.168c1.224,3.32,2.051,7.056,2.492,11.201
			c0.44,4.145,0.665,8.207,0.665,12.193s-0.225,8.054-0.665,12.199c-0.441,4.146-1.269,7.88-2.492,11.201
			c-1.218,3.321-2.932,6.043-5.139,8.162C461.624,295.272,458.759,296.338,455.233,296.338z M455.233,228.751
			c-2.241,0-4.156,0.584-5.751,1.756c-1.593,1.172-2.934,2.691-4.019,4.554c-1.084,1.867-1.949,3.991-2.594,6.36
			c-0.646,2.374-1.137,4.78-1.474,7.215c-0.343,2.437-0.558,4.795-0.66,7.072c-0.102,2.277-0.154,4.242-0.154,5.885
			c0,1.709,0.053,3.689,0.154,5.936c0.103,2.247,0.317,4.585,0.66,7.021c0.337,2.441,0.828,4.841,1.474,7.216
			c0.645,2.374,1.51,4.491,2.594,6.36c1.085,1.868,2.426,3.388,4.019,4.554c1.595,1.172,3.51,1.76,5.751,1.76
			c2.235,0,4.149-0.588,5.745-1.76c1.593-1.166,2.933-2.686,4.017-4.554c1.086-1.869,1.95-3.986,2.596-6.36
			c0.645-2.375,1.137-4.774,1.474-7.216c0.338-2.436,0.562-4.773,0.66-7.021c0.102-2.246,0.154-4.227,0.154-5.936
			c0-1.643-0.053-3.607-0.154-5.885c-0.098-2.277-0.322-4.636-0.66-7.072c-0.337-2.435-0.829-4.841-1.474-7.215
			c-0.646-2.369-1.51-4.493-2.596-6.36c-1.084-1.862-2.424-3.382-4.017-4.554C459.383,229.335,457.469,228.751,455.233,228.751z"/>
	</g>
</g>
<g id="Layer_1">
	<g>
		<path fill="#FFFFFF" d="M169.021,16.12c0.052-0.331,0.262-0.445,0.617-0.309L319.931,70.52c0.365,0.188,0.557,0.433,0.557,0.729
			v33.756c0,0.366-0.182,0.477-0.557,0.353L207.67,64.49v58.098l112.261,40.863c0.365,0.189,0.557,0.427,0.557,0.726v33.768
			c0,0.359-0.182,0.475-0.557,0.336l-150.292-54.71c-0.422-0.146-0.617-0.406-0.617-0.77V16.12z"/>
		<path fill="#FFFFFF" d="M329.396,71.25c0.057-0.37,0.266-0.626,0.613-0.759L480.32,15.783c0.354-0.071,0.545,0.052,0.545,0.336
			v33.767c0,0.353-0.182,0.607-0.545,0.73L368.049,91.469v11.765L480.32,62.365c0.354-0.062,0.545,0.057,0.545,0.346v33.764
			c0,0.358-0.182,0.603-0.545,0.729L368.049,138.07v11.481l112.271-40.857c0.354-0.07,0.545,0.048,0.545,0.347v33.756
			c0,0.355-0.182,0.6-0.545,0.735L330.01,198.235c-0.404,0.161-0.613,0.053-0.613-0.304V71.25z"/>
		<path fill="#FFFFFF" d="M7.326,71.264c0.062-0.374,0.27-0.642,0.625-0.765l150.308-54.712c0.346-0.062,0.517,0.047,0.517,0.341
			v33.768c0,0.352-0.161,0.598-0.517,0.721L45.994,91.475v11.758l112.265-40.858c0.346-0.072,0.517,0.047,0.517,0.342v33.771
			c0,0.354-0.161,0.594-0.517,0.727L45.994,138.071v11.503l112.265-40.869c0.346-0.071,0.517,0.047,0.517,0.337v33.769
			c0,0.354-0.161,0.597-0.517,0.726L7.952,198.24c-0.422,0.156-0.625,0.053-0.625-0.309L7.326,71.264L7.326,71.264z"/>
	</g>
</g>
</svg>
